<svg width="200" height="200" viewBox="0 0 200 200" xmlns="http://www.w3.org/2000/svg">
  <!-- Background -->
  <rect width="200" height="200" fill="#6366F1" rx="30"/>
  
  <!-- Phone outline -->
  <rect x="50" y="30" width="100" height="140" rx="15" fill="white" stroke="#E5E7EB" stroke-width="2"/>
  
  <!-- Screen -->
  <rect x="60" y="45" width="80" height="90" rx="8" fill="#F3F4F6"/>
  
  <!-- Message bubbles -->
  <rect x="70" y="55" width="45" height="15" rx="7" fill="#6366F1"/>
  <rect x="85" y="75" width="50" height="15" rx="7" fill="#E5E7EB"/>
  <rect x="70" y="95" width="40" height="15" rx="7" fill="#6366F1"/>
  <rect x="90" y="115" width="35" height="15" rx="7" fill="#E5E7EB"/>
  
  <!-- Keyboard representation -->
  <rect x="65" y="145" width="70" height="20" rx="5" fill="#E5E7EB"/>
  <circle cx="75" cy="155" r="2" fill="#9CA3AF"/>
  <circle cx="85" cy="155" r="2" fill="#9CA3AF"/>
  <circle cx="95" cy="155" r="2" fill="#9CA3AF"/>
  <circle cx="105" cy="155" r="2" fill="#9CA3AF"/>
  <circle cx="115" cy="155" r="2" fill="#9CA3AF"/>
  <circle cx="125" cy="155" r="2" fill="#9CA3AF"/>
  
  <!-- NLP Brain icon -->
  <circle cx="150" cy="60" r="25" fill="#10B981" stroke="white" stroke-width="3"/>
  <path d="M135 60 Q140 50 150 55 Q160 50 165 60 Q160 70 150 65 Q140 70 135 60" fill="white"/>
  <circle cx="145" cy="58" r="2" fill="#10B981"/>
  <circle cx="155" cy="58" r="2" fill="#10B981"/>
  
  <!-- AI/NLP processing lines -->
  <line x1="130" y1="45" x2="140" y2="35" stroke="#FCD34D" stroke-width="2"/>
  <line x1="130" y1="55" x2="140" y2="45" stroke="#FCD34D" stroke-width="2"/>
  <line x1="130" y1="65" x2="140" y2="55" stroke="#FCD34D" stroke-width="2"/>
  <line x1="130" y1="75" x2="140" y2="65" stroke="#FCD34D" stroke-width="2"/>
  
  <!-- Text "NLP" -->
  <text x="100" y="190" text-anchor="middle" fill="white" font-family="Arial, sans-serif" font-size="14" font-weight="bold">NLP SMS</text>
</svg>
